<svg width="512" height="314" viewBox="0 0 512 314" fill="none" xmlns="http://www.w3.org/2000/svg">
<g clip-path="url(#clip0_1257_21)">
<path d="M452.67 79.41C452.67 65.97 462.42 55.31 474.71 55.31C487.01 55.31 496.02 65.64 496.02 79.41C496.02 93.17 486.92 103.83 474.71 103.83C462.5 103.83 452.67 93.01 452.67 79.41ZM410.47 116.94H427.68V42.04H410.47V116.94ZM407.76 17.05C407.76 23.52 413.01 28.76 419.15 28.76C425.3 28.76 430.38 23.52 430.38 17.05C430.38 11.06 425.3 5.98 419.15 5.98C413.01 5.98 407.76 11.06 407.76 17.05ZM340.24 79.24C340.24 65.8 350.16 55.31 362.86 55.31C375.56 55.31 385.47 65.8 385.47 79.24C385.47 92.68 375.48 103.83 362.86 103.83C350.24 103.74 340.24 92.85 340.24 79.24ZM322.7 79.24C322.7 101.7 340.4 119.4 362.86 119.4C385.31 119.4 403.01 101.7 403.01 79.24C403.01 56.79 385.64 39.74 362.86 39.74C340.08 39.66 322.7 56.87 322.7 79.24ZM276.16 116.94H293.37V77.69C293.37 62.12 301.64 55.23 315.41 55.23C317.95 55.23 319.92 55.4 321.72 55.81V40.65C319.92 40.07 316.8 39.58 313.36 39.58C290.01 39.58 276.24 54.25 276.24 77.6V116.94H276.16ZM207.08 79.41C207.08 65.97 216.83 55.31 229.12 55.31C241.41 55.31 250.43 65.64 250.43 79.41C250.43 93.17 241.33 103.83 229.12 103.83C216.91 103.83 207.08 93.01 207.08 79.41ZM189.54 79.41C189.54 101.12 206.91 119.4 227.4 119.4C235.92 119.4 243.71 115.95 248.38 110.3H249.12V117.02H266.33V0H249.12V48.19H248.38C243.87 42.78 236.09 39.66 227.4 39.66C206.83 39.66 189.54 57.77 189.54 79.41ZM114.07 116.94H131.28V73.1C131.28 62.61 138.33 55.31 148.08 55.31C157.83 55.31 164.88 62.69 164.88 73.1V116.94H182.08V73.1C182.08 54.82 167.58 39.66 148.08 39.66C128.57 39.66 114.07 54.82 114.07 73.1V116.94ZM34.99 72.03L53.59 18.85H54.49L73.1 72.03H34.99ZM0 116.94H19.5L29.25 89.08H79L88.75 116.94H108.09L64.82 0H43.27L0 116.94ZM473.07 119.4C481.6 119.4 489.38 115.95 494.05 110.3H494.79V117.02H512V0H494.79V48.19H494.05C489.55 42.78 481.76 39.66 473.08 39.66C452.43 39.66 435.22 57.77 435.22 79.32C435.22 100.96 452.59 119.4 473.08 119.4H473.07Z" fill="white"/>
<path d="M390.72 307.95C390.64 307.38 390.56 306.89 390.47 306.31C389.9 302.95 389.24 299.6 388.42 296.24C387.046 290.495 385.268 284.854 383.1 279.36C381.29 274.68 379.25 270.18 376.95 265.83C374 260.26 370.72 254.85 367.04 249.69C362.53 243.38 357.53 237.56 352.12 232.07C349.83 229.78 347.45 227.57 344.99 225.52C339.67 220.93 334.01 216.75 328.03 213.06C328.11 212.98 328.11 212.9 328.19 212.81C330.9 208.06 333.68 203.39 336.39 198.64C339.09 194.05 341.71 189.46 344.42 184.79C346.3 181.51 348.27 178.15 350.15 174.87C350.65 174.05 350.97 173.32 351.22 172.41C351.96 170.12 352.04 167.66 351.38 165.37C351.22 164.79 351.06 164.22 350.81 163.73C350.56 163.15 350.32 162.66 349.99 162.17C349.01 160.45 347.53 158.97 345.65 157.91C344.01 156.93 342.21 156.35 340.32 156.19C339.5 156.11 338.76 156.11 337.94 156.19C337.29 156.27 336.63 156.35 336.06 156.52C333.77 157.09 331.72 158.32 330.08 160.12C329.5 160.78 328.93 161.52 328.52 162.25C326.64 165.53 324.67 168.89 322.79 172.17L314.76 186.02C312.05 190.77 309.26 195.44 306.56 200.19C306.23 200.69 305.99 201.26 305.66 201.75C305.25 201.59 304.84 201.42 304.43 201.26C289.35 195.52 273.04 192.41 255.92 192.41H254.52C239.73 192.555 225.063 195.101 211.09 199.95C209.54 200.52 207.98 201.1 206.42 201.67C206.18 201.18 205.85 200.69 205.6 200.19C202.9 195.44 200.11 190.77 197.41 186.02C194.7 181.43 192.08 176.84 189.38 172.17C187.49 168.89 185.53 165.53 183.64 162.25C183.15 161.43 182.66 160.78 182.08 160.12C180.476 158.368 178.399 157.117 176.1 156.52C175.45 156.35 174.79 156.27 174.22 156.19C173.4 156.11 172.66 156.11 171.84 156.19C169.96 156.35 168.15 156.93 166.52 157.91C164.745 158.955 163.252 160.418 162.17 162.17C161.84 162.66 161.6 163.15 161.35 163.73C161.11 164.3 160.94 164.79 160.78 165.37C160.2 167.66 160.2 170.04 160.94 172.41C161.19 173.23 161.6 174.05 162.01 174.87C163.89 178.15 165.86 181.51 167.74 184.79C170.45 189.38 173.07 193.97 175.77 198.64C178.48 203.39 181.26 208.06 183.97 212.81L184.05 212.9C178.56 216.34 173.32 220.11 168.32 224.29C165.37 226.75 162.5 229.37 159.79 232.07C154.3 237.48 149.39 243.38 144.88 249.69C141.19 254.85 137.91 260.18 134.97 265.83C132.67 270.18 130.62 274.68 128.82 279.35C126.69 284.84 124.89 290.5 123.49 296.24C122.67 299.51 122.02 302.87 121.44 306.31C121.36 306.89 121.28 307.38 121.2 307.95C120.87 309.92 120.62 311.89 120.38 313.94H391.21C391.21 311.89 390.97 309.92 390.72 307.95Z" fill="#34A853"/>
<path d="M326.47 276.4C331.88 272.8 332.7 264.44 328.19 257.8C323.77 251.08 315.74 248.63 310.33 252.23C304.92 255.84 304.1 264.19 308.61 270.83C313.04 277.55 321.07 280.01 326.47 276.4ZM203.72 270.91C208.14 264.19 207.41 255.92 202 252.31C196.59 248.71 188.56 251.17 184.13 257.89C179.71 264.6 180.45 272.88 185.85 276.49C191.26 280.09 199.21 277.55 203.72 270.91Z" fill="#202124"/>
</g>
<defs>
<clipPath id="clip0_1257_21">
<rect width="512" height="313.94" fill="white"/>
</clipPath>
</defs>
</svg>
