<svg width="257" height="128" viewBox="0 0 257 128" fill="none" xmlns="http://www.w3.org/2000/svg">
<g clip-path="url(#clip0_1257_26)">
<path d="M1.86222 124.978H23.0321V34.8584H1.86222V124.978ZM12.4047 23.0401C19.0362 23.0401 24.2224 17.9388 24.2224 11.5626C24.2224 5.10104 19.0362 0 12.4047 0C5.85826 0 0.672119 5.10126 0.672119 11.5626C0.672119 17.9391 5.85826 23.0401 12.4047 23.0401ZM93.5159 0.254432C57.7236 0.254432 35.2774 24.6551 35.2774 63.6795C35.2774 102.704 57.7214 127.02 93.5159 127.02C129.223 127.02 151.67 102.704 151.67 63.6795C151.67 24.6551 129.226 0.254432 93.5159 0.254432ZM93.5159 18.9587C115.366 18.9587 129.308 36.3028 129.308 63.6791C129.308 90.9701 115.365 108.315 93.5159 108.315C71.5813 108.315 57.7236 90.9705 57.7236 63.6791C57.7236 36.3032 71.5817 18.9587 93.5159 18.9587ZM160.6 90.4608C161.535 113.077 180.069 127.019 208.295 127.019C237.967 127.019 256.672 112.396 256.672 89.1005C256.672 70.8214 246.13 60.534 221.219 54.8382L207.106 51.6074C192.058 48.0366 185.851 43.2756 185.851 35.1137C185.851 24.9114 195.203 18.1099 209.061 18.1099C223.09 18.1099 232.696 24.9965 233.717 36.474H254.631C254.121 14.8791 236.267 0.255085 209.232 0.255085C182.535 0.255085 163.576 14.9634 163.576 36.7287C163.576 54.2427 174.288 65.1254 196.902 70.3119L212.801 74.0529C228.274 77.7087 234.566 82.8098 234.566 91.6518C234.566 101.854 224.278 109.166 209.486 109.166C194.523 109.166 183.216 101.769 181.856 90.4614H160.601L160.6 90.4608Z" fill="white"/>
</g>
<defs>
<clipPath id="clip0_1257_26">
<rect width="257" height="128" fill="white"/>
</clipPath>
</defs>
</svg>
