<svg width="269" height="54" viewBox="0 0 269 54" fill="none" xmlns="http://www.w3.org/2000/svg">
<path d="M27.0485 34.9426C27.0485 37.5815 24.9096 39.7204 22.2714 39.7204C19.6332 39.7204 17.4937 37.5815 17.4937 34.9426C17.4937 32.3037 19.6325 30.1655 22.2714 30.1655C24.9103 30.1655 27.0485 32.3044 27.0485 34.9426Z" fill="url(#paint0_linear_2610_8161)"/>
<path d="M47.4645 34.9426C47.4645 37.5815 45.3256 39.7204 42.6874 39.7204C40.0493 39.7204 37.9097 37.5815 37.9097 34.9426C37.9097 32.3037 40.0486 30.1655 42.6874 30.1655C45.3263 30.1655 47.4645 32.3044 47.4645 34.9426Z" fill="url(#paint1_linear_2610_8161)"/>
<path d="M62.9389 33.5372C62.1056 33.2892 60.2354 32.908 60.2354 32.908C60.0403 31.8087 59.6854 30.5142 58.9229 30.1656C58.1604 29.817 56.5472 29.7163 56.5472 29.7163L55.909 33.8649C56.1396 25.0531 51.1326 21.1913 47.0083 19.4684C42.9653 17.7795 38.0854 17.2608 38.0854 17.2608C38.1118 16.7024 37.9924 15.3809 37.2743 14.4858C36.5562 13.5906 35.2174 13.3115 34.6056 13.3115H33.7278V11.6309C33.7278 10.6031 33.675 9.82258 33.8701 9.27327C34.0646 8.72327 34.4729 8.59966 35.4653 7.57119C36.4583 6.54271 37.4417 4.16216 36.0861 2.0566C35.5875 1.2823 34.916 0.787854 34.2708 0.473271C32.9694 -0.162146 31.4396 -0.153812 30.1354 0.47466C29.4806 0.790632 28.7986 1.28438 28.3028 2.0566C26.95 4.16424 27.9299 6.54271 28.9229 7.57119C29.916 8.59966 30.3236 8.72327 30.5188 9.27327C30.7139 9.82258 30.6604 10.6031 30.6604 11.6309V13.3115H29.7826C29.1715 13.3115 27.8326 13.5906 27.1146 14.4858C26.3965 15.3809 26.2771 16.7024 26.3035 17.2608C26.3035 17.2608 21.4229 17.7795 17.3806 19.4684C13.2556 21.1913 10.0931 24.5476 8.97639 29.3351C8.97639 29.3351 7.55347 29.4483 6.46319 29.6941C5.20069 29.9788 4.375 30.6254 4.17569 32.9656C4.17569 32.9656 2.27431 33.1649 1.29028 33.4573C0.30625 33.7504 0 34.601 0 35.6517C0 36.7024 0.170833 37.3809 1.06389 37.7663C1.83542 38.0983 4.10903 38.3642 4.10903 38.3642C4.10903 38.3642 4.44583 39.3705 4.81875 40.2219C5.19097 41.0726 5.66042 41.6934 7.66389 41.5781C7.66389 41.5781 8.32917 39.0247 8.57708 37.6948C8.57708 37.6948 8.675 41.2059 8.78125 43.3156C8.8875 45.4254 8.64653 47.7073 13.5507 50.1066C18.5153 52.5358 28.5153 53.3156 32.1944 53.0587C35.8736 53.3156 45.8736 52.5358 50.8382 50.1066C55.7417 47.7073 55.5014 45.4254 55.6076 43.3156C55.6313 42.8462 55.6542 42.3073 55.6764 41.7531C56.1444 41.8226 57.6486 41.9629 58.7368 41.1302C60.1437 40.0538 60.1201 38.3066 60.1201 38.3066C60.1201 38.3066 62.141 38.2004 63.0542 37.8809C64.1236 37.5073 64.3021 36.901 64.3132 35.5378C64.3243 34.1399 63.7722 33.7858 62.9389 33.5372ZM52.0792 37.0747C51.5826 41.8969 48.5507 44.0601 45.3771 44.7344C41.7007 45.5156 38.7104 44.6983 36.8306 42.7483C34.9514 40.7976 34.0958 39.9066 32.1944 39.867C30.2931 39.9066 29.4375 40.7976 27.5576 42.7483C25.6785 44.6983 22.7104 45.3997 19.0118 44.7344C15.8556 44.167 12.8062 41.8969 12.3097 37.0747C11.8319 32.4344 13.7632 28.6351 18.5153 26.5129C23.2667 24.3906 29.7208 24.7344 30.8201 24.7344H33.4444C34.5431 24.7344 41.1215 24.3906 45.8736 26.5129C50.625 28.6351 52.5569 32.4344 52.0792 37.0747Z" fill="url(#paint2_linear_2610_8161)"/>
<path d="M118.414 21.4473H115.639V19.5417C113.889 18.6501 111.907 18.1487 109.81 18.1487C102.7 18.1487 96.9377 23.9126 96.9377 31.0209C96.9377 38.1292 102.7 43.8931 109.81 43.8931C116.92 43.8931 122.682 38.1306 122.682 31.0209C122.682 27.2195 121.035 23.8028 118.414 21.4473ZM101.641 37.5556C95.9739 30.9515 100.531 20.7723 109.166 20.364C111.738 20.2376 114.353 21.1195 116.289 22.807C115.253 22.0709 114.106 21.507 112.899 21.1667C103.127 18.5348 95.7586 29.3737 101.641 37.5556ZM114.571 34.8903C114.309 36.7403 112.807 37.8265 110.892 38.0584V39.8515C110.892 39.9459 110.814 40.0237 110.718 40.0237H108.697C108.602 40.0237 108.524 39.9459 108.524 39.8515V37.9237C106.434 37.407 105.075 35.8876 105.075 35.8876L106.738 34.0265C106.738 34.0265 107.988 35.489 109.597 35.7556C110.87 35.9654 111.978 35.2362 111.791 34.2653C111.517 32.8334 109.491 33.0959 107.191 31.2876C104.889 29.4778 105.602 25.4584 108.959 24.8112C108.985 24.8056 109.011 24.8028 109.039 24.7973V22.9223C109.039 22.8278 109.116 22.7501 109.211 22.7501H111.232C111.328 22.7501 111.406 22.8278 111.406 22.9223V24.8515C113.349 25.2903 114.571 26.5528 114.571 26.5528L112.947 28.4681C112.947 28.4681 112.017 27.5459 110.793 27.1917C109.357 26.7751 108.463 27.4667 108.586 28.4153C108.724 29.4681 110.235 29.8903 112.043 30.7278C113.853 31.5667 114.879 32.7028 114.571 34.8903ZM117.816 31.6806C117.816 31.7265 117.778 31.7626 117.734 31.7626H116.329C116.285 31.7626 116.247 31.7265 116.247 31.6806V30.2681C116.247 30.2237 116.285 30.1862 116.329 30.1862H117.734C117.778 30.1862 117.816 30.2237 117.816 30.2681V31.6806ZM120.107 28.282H117.288C117.197 28.282 117.124 28.2084 117.124 28.1181V25.2806C117.124 25.1903 117.197 25.1167 117.288 25.1167H120.107C120.197 25.1167 120.271 25.1903 120.271 25.2806V28.1181C120.271 28.2084 120.197 28.282 120.107 28.282Z" fill="url(#paint3_linear_2610_8161)"/>
<path d="M127.21 12.9543H122.652C122.493 12.9543 122.364 13.0831 122.364 13.2418V17.7377C122.364 17.8965 122.493 18.0252 122.652 18.0252H127.21C127.369 18.0252 127.497 17.8965 127.497 17.7377V13.2418C127.497 13.0831 127.369 12.9543 127.21 12.9543Z" fill="url(#paint4_linear_2610_8161)"/>
<path d="M120.591 15.489H117.532C117.405 15.489 117.302 15.5922 117.302 15.7196V18.7348C117.302 18.8622 117.405 18.9654 117.532 18.9654H120.591C120.718 18.9654 120.821 18.8622 120.821 18.7348V15.7196C120.821 15.5922 120.718 15.489 120.591 15.489Z" fill="url(#paint5_linear_2610_8161)"/>
<path d="M125.224 20.6194H122.686C122.552 20.6194 122.443 20.7282 122.443 20.8624V23.3638C122.443 23.4981 122.552 23.6069 122.686 23.6069H125.224C125.358 23.6069 125.467 23.4981 125.467 23.3638V20.8624C125.467 20.7282 125.358 20.6194 125.224 20.6194Z" fill="url(#paint6_linear_2610_8161)"/>
<path d="M124.76 25.7139H123.238C123.132 25.7139 123.046 25.7997 123.046 25.9055V27.4055C123.046 27.5114 123.132 27.5972 123.238 27.5972H124.76C124.866 27.5972 124.952 27.5114 124.952 27.4055V25.9055C124.952 25.7997 124.866 25.7139 124.76 25.7139Z" fill="url(#paint7_linear_2610_8161)"/>
<path d="M113.81 13.7209H112.946C112.879 13.7209 112.824 13.7757 112.824 13.8432V14.6932C112.824 14.7607 112.879 14.8154 112.946 14.8154H113.81C113.878 14.8154 113.932 14.7607 113.932 14.6932V13.8432C113.932 13.7757 113.878 13.7209 113.81 13.7209Z" fill="url(#paint8_linear_2610_8161)"/>
<path d="M120.845 10H118.892C118.786 10 118.7 10.0858 118.7 10.1917V12.1153C118.7 12.2211 118.786 12.3069 118.892 12.3069H120.845C120.95 12.3069 121.036 12.2211 121.036 12.1153V10.1917C121.036 10.0858 120.95 10 120.845 10Z" fill="url(#paint9_linear_2610_8161)"/>
<path d="M93.0558 39.9929C90.703 42.3596 87.4335 43.8263 83.8197 43.8263C76.653 43.8263 70.8433 39.3193 70.8433 30.9499C70.8433 23.104 76.653 18.0735 83.8197 18.0735C87.3863 18.0735 90.6169 19.5013 92.9627 21.8138L89.9155 24.8346C88.3683 23.3513 86.2627 22.4388 83.9405 22.4388C79.196 22.4388 75.3502 25.7638 75.3502 30.9499C75.3502 36.4818 79.196 39.461 83.9405 39.461C86.3169 39.461 88.4669 38.5054 90.0224 36.961L93.0558 39.9929Z" fill="url(#paint10_linear_2610_8161)"/>
<path d="M135.484 18.5044H130.803V43.1322H135.484V18.5044Z" fill="url(#paint11_linear_2610_8161)"/>
<path d="M163.941 18.5027V43.1305H161.157L159.26 40.7388L148.091 26.6541V43.1305H143.409V18.5027H147.15L148.091 19.6902L159.26 33.8041V18.5027H163.941Z" fill="url(#paint12_linear_2610_8161)"/>
<path d="M169.314 27.3985H181.761V28.468H176.125V43.0041H175.056V28.468H169.314V27.3985ZM186.474 43.043H197.186V41.9735H187.543V35.6319H196.76V34.5624H187.543V28.468H197.186V27.3985H186.474V43.043ZM231.828 27.4902V34.7124H221.656V27.4902H220.586V43.0041H221.656V35.7819H231.828V43.0041H232.897V27.4902H231.828ZM214.59 40.0388L215.32 40.8235C213.868 42.2499 211.881 43.1305 209.69 43.1305C207.5 43.1305 205.463 42.3819 204.02 41.0208C202.472 39.561 201.656 37.5124 201.656 35.0958C201.656 30.5152 205.11 27.061 209.69 27.061C211.943 27.061 213.983 27.993 215.443 29.4916L214.61 30.1708C213.349 28.9096 211.608 28.1305 209.69 28.1305C205.72 28.1305 202.725 31.1249 202.725 35.0958C202.725 39.2624 205.524 42.061 209.69 42.061C211.599 42.061 213.331 41.2902 214.59 40.0388Z" fill="url(#paint13_linear_2610_8161)"/>
<path d="M238.203 31.7126C238.225 28.3751 241.383 26.9307 244.293 26.9307C247.452 26.9307 250.879 28.2168 250.879 31.9598C250.879 35.9751 247.857 36.7418 244.542 36.7418C243.233 36.7418 241.114 37.0807 241.114 38.7945V40.1473H250.925V42.9223H238.136V38.7723C238.136 35.1404 241.429 34.0584 244.542 34.0584C245.738 34.0584 247.925 33.8557 247.925 32.0279C247.925 30.314 246.368 29.5015 244.339 29.5015C242.782 29.5015 241.181 30.2904 241.158 31.7126H238.204H238.203ZM268.856 27.1571V36.2015C268.856 40.8709 265.992 43.2612 262.021 43.2612C258.05 43.2612 255.006 40.9612 255.006 36.2015V27.1571H257.96V36.2015C257.96 39.0432 259.583 40.5543 262.042 40.5543C264.5 40.5543 265.899 38.9071 265.899 36.2015V27.1571H268.853H268.856Z" fill="url(#paint14_linear_2610_8161)"/>
<defs>
<linearGradient id="paint0_linear_2610_8161" x1="17.4937" y1="34.9433" x2="27.0485" y2="34.9433" gradientUnits="userSpaceOnUse">
<stop offset="0.26" stop-color="#C34A9D"/>
<stop offset="0.63" stop-color="#B742AA"/>
</linearGradient>
<linearGradient id="paint1_linear_2610_8161" x1="37.9097" y1="34.9433" x2="47.4645" y2="34.9433" gradientUnits="userSpaceOnUse">
<stop offset="0.13" stop-color="#9D35C8"/>
<stop offset="0.89" stop-color="#8D2EC9"/>
</linearGradient>
<linearGradient id="paint2_linear_2610_8161" x1="-2.09028" y1="26.8247" x2="59.7451" y2="26.3462" gradientUnits="userSpaceOnUse">
<stop offset="0.02" stop-color="#E95E73"/>
<stop offset="0.14" stop-color="#D75586"/>
<stop offset="0.31" stop-color="#C94D95"/>
<stop offset="0.58" stop-color="#AB3DB8"/>
<stop offset="0.68" stop-color="#9E37B9"/>
<stop offset="0.86" stop-color="#7F28BD"/>
<stop offset="0.99" stop-color="#641CC1"/>
</linearGradient>
<linearGradient id="paint3_linear_2610_8161" x1="94.3239" y1="39.4195" x2="133.366" y2="18.2487" gradientUnits="userSpaceOnUse">
<stop offset="0.28" stop-color="#E9636F"/>
<stop offset="0.67" stop-color="#DC5781"/>
</linearGradient>
<linearGradient id="paint4_linear_2610_8161" x1="91.2501" y1="33.7516" x2="130.293" y2="12.5821" gradientUnits="userSpaceOnUse">
<stop offset="0.28" stop-color="#E9636F"/>
<stop offset="0.67" stop-color="#DC5781"/>
</linearGradient>
<linearGradient id="paint5_linear_2610_8161" x1="90.6462" y1="32.6363" x2="129.688" y2="11.4654" gradientUnits="userSpaceOnUse">
<stop offset="0.28" stop-color="#E9636F"/>
<stop offset="0.67" stop-color="#DC5781"/>
</linearGradient>
<linearGradient id="paint6_linear_2610_8161" x1="93.8045" y1="38.4611" x2="132.846" y2="17.2916" gradientUnits="userSpaceOnUse">
<stop offset="0.28" stop-color="#E9636F"/>
<stop offset="0.67" stop-color="#DC5781"/>
</linearGradient>
<linearGradient id="paint7_linear_2610_8161" x1="95.7184" y1="41.9903" x2="134.76" y2="20.8194" gradientUnits="userSpaceOnUse">
<stop offset="0.28" stop-color="#E9636F"/>
<stop offset="0.67" stop-color="#DC5781"/>
</linearGradient>
<linearGradient id="paint8_linear_2610_8161" x1="88.1142" y1="27.9668" x2="127.156" y2="6.7973" gradientUnits="userSpaceOnUse">
<stop offset="0.28" stop-color="#E9636F"/>
<stop offset="0.67" stop-color="#DC5781"/>
</linearGradient>
<linearGradient id="paint9_linear_2610_8161" x1="88.2835" y1="28.2805" x2="127.327" y2="7.10968" gradientUnits="userSpaceOnUse">
<stop offset="0.28" stop-color="#E9636F"/>
<stop offset="0.67" stop-color="#DC5781"/>
</linearGradient>
<linearGradient id="paint10_linear_2610_8161" x1="68.8141" y1="31.411" x2="101.156" y2="30.4179" gradientUnits="userSpaceOnUse">
<stop offset="0.22" stop-color="#EE825A"/>
<stop offset="0.61" stop-color="#EC7562"/>
<stop offset="0.79" stop-color="#EB6F67"/>
</linearGradient>
<linearGradient id="paint11_linear_2610_8161" x1="130.803" y1="30.8169" x2="135.484" y2="30.8169" gradientUnits="userSpaceOnUse">
<stop offset="0.4" stop-color="#D0508F"/>
<stop offset="0.73" stop-color="#CD4F91"/>
</linearGradient>
<linearGradient id="paint12_linear_2610_8161" x1="143.409" y1="30.8166" x2="163.941" y2="30.8166" gradientUnits="userSpaceOnUse">
<stop offset="0.06" stop-color="#C3499D"/>
<stop offset="0.71" stop-color="#B241B1"/>
</linearGradient>
<linearGradient id="paint13_linear_2610_8161" x1="163.525" y1="35.4305" x2="235.724" y2="34.9333" gradientUnits="userSpaceOnUse">
<stop offset="0.25" stop-color="#A439C0"/>
<stop offset="0.39" stop-color="#9733C0"/>
<stop offset="0.63" stop-color="#7825C1"/>
<stop offset="0.71" stop-color="#6C20C2"/>
</linearGradient>
<linearGradient id="paint14_linear_2610_8161" x1="238.136" y1="35.0959" x2="268.857" y2="35.0959" gradientUnits="userSpaceOnUse">
<stop offset="0.12" stop-color="#5315BE"/>
<stop offset="0.57" stop-color="#2F04B7"/>
</linearGradient>
</defs>
</svg>
