<svg width="80" height="80" viewBox="0 0 80 80" fill="none" xmlns="http://www.w3.org/2000/svg">
<path d="M35 48.9996C35 51.7615 32.5376 54 29.5004 54C26.4632 54 24 51.7615 24 48.9996C24 46.2378 26.4624 44 29.5004 44C32.5384 44 35 46.2385 35 48.9996Z" fill="url(#paint0_linear_2153_20386)"/>
<path d="M57 48.9996C57 51.7615 54.5376 54 51.5004 54C48.4632 54 46 51.7615 46 48.9996C46 46.2378 48.4624 44 51.5004 44C54.5384 44 57 46.2385 57 48.9996Z" fill="url(#paint1_linear_2153_20386)"/>
<path d="M74.4613 47.2598C73.5283 46.9843 71.4347 46.5608 71.4347 46.5608C71.2162 45.3394 70.8189 43.9013 69.9653 43.514C69.1117 43.1267 67.3057 43.0148 67.3057 43.0148L66.5912 47.6239C66.8493 37.834 61.2439 33.5436 56.6267 31.6294C52.1004 29.753 46.6373 29.1767 46.6373 29.1767C46.6669 28.5564 46.5332 27.0882 45.7293 26.0937C44.9254 25.0992 43.4265 24.789 42.7416 24.789H41.7589V22.9219C41.7589 21.7801 41.6998 20.9129 41.9183 20.3026C42.1359 19.6915 42.5931 19.5542 43.704 18.4116C44.8158 17.269 45.9166 14.6242 44.3991 12.2849C43.8409 11.4246 43.0891 10.8753 42.3668 10.5258C40.9099 9.81986 39.1972 9.82911 37.7372 10.5273C37.004 10.8784 36.2406 11.4269 35.6855 12.2849C34.171 14.6265 35.268 17.269 36.3797 18.4116C37.4915 19.5542 37.9478 19.6915 38.1663 20.3026C38.3848 20.9129 38.3249 21.7801 38.3249 22.9219V24.789H37.3422C36.6581 24.789 35.1592 25.0992 34.3553 26.0937C33.5514 27.0882 33.4177 28.5564 33.4472 29.1767C33.4472 29.1767 27.9834 29.753 23.4579 31.6294C18.8398 33.5436 15.2994 37.2723 14.0492 42.5913C14.0492 42.5913 12.4563 42.717 11.2357 42.9901C9.82227 43.3065 8.89789 44.0247 8.67477 46.6248C8.67477 46.6248 6.54613 46.8462 5.44449 47.171C4.34285 47.4966 4 48.4417 4 49.6091C4 50.7764 4.19125 51.5302 5.19104 51.9584C6.05478 52.3272 8.60013 52.6227 8.60013 52.6227C8.60013 52.6227 8.97719 53.7406 9.39468 54.6865C9.81139 55.6316 10.3369 56.3214 12.5799 56.1933C12.5799 56.1933 13.3247 53.3564 13.6022 51.8789C13.6022 51.8789 13.7118 55.7797 13.8308 58.1236C13.9497 60.4675 13.6799 63.0028 19.1703 65.6684C24.7282 68.3672 35.9234 69.2336 40.0423 68.9482C44.1612 69.2336 55.3564 68.3672 60.9143 65.6684C66.4038 63.0028 66.1348 60.4675 66.2538 58.1236C66.2802 57.6021 66.3059 57.0034 66.3308 56.3877C66.8548 56.4649 68.5387 56.6207 69.7569 55.6956C71.332 54.4998 71.3056 52.5586 71.3056 52.5586C71.3056 52.5586 73.568 52.4406 74.5903 52.0857C75.7876 51.6706 75.9874 50.997 75.9998 49.4825C76.0123 47.9295 75.3942 47.536 74.4613 47.2598ZM62.3036 51.1899C61.7477 56.5474 58.3534 58.9507 54.8005 59.6999C50.6847 60.5678 47.337 59.6598 45.2325 57.4933C43.1287 55.3261 42.1709 54.3362 40.0423 54.2922C37.9136 54.3362 36.9558 55.3261 34.8513 57.4933C32.7475 59.6598 29.4247 60.439 25.2841 59.6999C21.7506 59.0695 18.3368 56.5474 17.781 51.1899C17.2461 46.0346 19.4082 41.8136 24.7282 39.4558C30.0475 37.098 37.273 37.4799 38.5037 37.4799H41.4417C42.6716 37.4799 50.0363 37.098 55.3564 39.4558C60.6756 41.8136 62.8385 46.0346 62.3036 51.1899Z" fill="url(#paint2_linear_2153_20386)"/>
<defs>
<linearGradient id="paint0_linear_2153_20386" x1="24" y1="49.0004" x2="35" y2="49.0004" gradientUnits="userSpaceOnUse">
<stop offset="0.26" stop-color="#C34A9D"/>
<stop offset="0.63" stop-color="#B742AA"/>
</linearGradient>
<linearGradient id="paint1_linear_2153_20386" x1="46" y1="49.0004" x2="57" y2="49.0004" gradientUnits="userSpaceOnUse">
<stop offset="0.13" stop-color="#9D35C8"/>
<stop offset="0.89" stop-color="#8D2EC9"/>
</linearGradient>
<linearGradient id="paint2_linear_2153_20386" x1="1.6599" y1="39.8022" x2="70.8857" y2="39.2624" gradientUnits="userSpaceOnUse">
<stop offset="0.02" stop-color="#E95E73"/>
<stop offset="0.14" stop-color="#D75586"/>
<stop offset="0.31" stop-color="#C94D95"/>
<stop offset="0.58" stop-color="#AB3DB8"/>
<stop offset="0.68" stop-color="#9E37B9"/>
<stop offset="0.86" stop-color="#7F28BD"/>
<stop offset="0.99" stop-color="#641CC1"/>
</linearGradient>
</defs>
</svg>
