<svg width="129" height="107" viewBox="0 0 129 107" fill="none" xmlns="http://www.w3.org/2000/svg">
<path d="M54.097 69.8853C54.097 75.1631 49.8193 79.4409 44.5429 79.4409C39.2665 79.4409 34.9873 75.1631 34.9873 69.8853C34.9873 64.6076 39.2651 60.3312 44.5429 60.3312C49.8206 60.3312 54.097 64.609 54.097 69.8853Z" fill="url(#paint0_linear_54761_8158)"/>
<path d="M94.9291 69.8853C94.9291 75.1631 90.6513 79.4409 85.3749 79.4409C80.0985 79.4409 75.8193 75.1631 75.8193 69.8853C75.8193 64.6076 80.0971 60.3312 85.3749 60.3312C90.6527 60.3312 94.9291 64.609 94.9291 69.8853Z" fill="url(#paint1_linear_54761_8158)"/>
<path d="M125.878 67.0743C124.211 66.5785 120.471 65.816 120.471 65.816C120.081 63.6174 119.371 61.0285 117.846 60.3313C116.321 59.634 113.094 59.4326 113.094 59.4326L111.818 67.7299C112.279 50.1063 102.265 42.3827 94.0167 38.9368C85.9306 35.559 76.1708 34.5215 76.1708 34.5215C76.2236 33.4049 75.9847 30.7618 74.5486 28.9715C73.1125 27.1813 70.4347 26.6229 69.2111 26.6229H67.4556V23.2618C67.4556 21.2063 67.35 19.6452 67.7403 18.5465C68.1292 17.4465 68.9458 17.1993 70.9305 15.1424C72.9167 13.0854 74.8833 8.32432 72.1722 4.11321C71.175 2.5646 69.8319 1.57571 68.5417 0.946542C65.9389 -0.324291 62.8792 -0.307625 60.2708 0.949319C58.9611 1.58126 57.5972 2.56876 56.6056 4.11321C53.9 8.32849 55.8597 13.0854 57.8458 15.1424C59.8319 17.1993 60.6472 17.4465 61.0375 18.5465C61.4278 19.6452 61.3208 21.2063 61.3208 23.2618V26.6229H59.5653C58.3431 26.6229 55.6653 27.1813 54.2292 28.9715C52.7931 30.7618 52.5542 33.4049 52.6069 34.5215C52.6069 34.5215 42.8458 35.559 34.7611 38.9368C26.5111 42.3827 20.1861 49.0951 17.9528 58.6701C17.9528 58.6701 15.1069 58.8965 12.9264 59.3882C10.4014 59.9576 8.75 61.2507 8.35139 65.9313C8.35139 65.9313 4.54861 66.3299 2.58056 66.9146C0.6125 67.5007 0 69.2021 0 71.3035C0 73.4049 0.341666 74.7618 2.12778 75.5327C3.67083 76.1965 8.21805 76.7285 8.21805 76.7285C8.21805 76.7285 8.89167 78.741 9.6375 80.4438C10.3819 82.1452 11.3208 83.3868 15.3278 83.1563C15.3278 83.1563 16.6583 78.0493 17.1542 75.3896C17.1542 75.3896 17.35 82.4118 17.5625 86.6313C17.775 90.8507 17.2931 95.4146 27.1014 100.213C37.0306 105.072 57.0306 106.631 64.3889 106.117C71.7472 106.631 91.7472 105.072 101.676 100.213C111.483 95.4146 111.003 90.8507 111.215 86.6313C111.263 85.6924 111.308 84.6146 111.353 83.5063C112.289 83.6452 115.297 83.9257 117.474 82.2604C120.287 80.1077 120.24 76.6132 120.24 76.6132C120.24 76.6132 124.282 76.4007 126.108 75.7618C128.247 75.0146 128.604 73.8021 128.626 71.0757C128.649 68.2799 127.544 67.5715 125.878 67.0743ZM104.158 74.1493C103.165 83.7938 97.1014 88.1201 90.7542 89.4688C83.4014 91.0313 77.4208 89.3965 73.6611 85.4965C69.9028 81.5952 68.1917 79.8132 64.3889 79.734C60.5861 79.8132 58.875 81.5952 55.1153 85.4965C51.3569 89.3965 45.4208 90.7993 38.0236 89.4688C31.7111 88.334 25.6125 83.7938 24.6194 74.1493C23.6639 64.8688 27.5264 57.2701 37.0306 53.0257C46.5333 48.7813 59.4417 49.4688 61.6403 49.4688H66.8889C69.0861 49.4688 82.2431 48.7813 91.7472 53.0257C101.25 57.2701 105.114 64.8688 104.158 74.1493Z" fill="url(#paint2_linear_54761_8158)"/>
<defs>
<linearGradient id="paint0_linear_54761_8158" x1="34.9873" y1="69.8867" x2="54.097" y2="69.8867" gradientUnits="userSpaceOnUse">
<stop offset="0.26" stop-color="#C34A9D"/>
<stop offset="0.63" stop-color="#B742AA"/>
</linearGradient>
<linearGradient id="paint1_linear_54761_8158" x1="75.8193" y1="69.8867" x2="94.9291" y2="69.8867" gradientUnits="userSpaceOnUse">
<stop offset="0.13" stop-color="#9D35C8"/>
<stop offset="0.89" stop-color="#8D2EC9"/>
</linearGradient>
<linearGradient id="paint2_linear_54761_8158" x1="-4.18056" y1="53.6493" x2="119.49" y2="52.6924" gradientUnits="userSpaceOnUse">
<stop offset="0.02" stop-color="#E95E73"/>
<stop offset="0.14" stop-color="#D75586"/>
<stop offset="0.31" stop-color="#C94D95"/>
<stop offset="0.58" stop-color="#AB3DB8"/>
<stop offset="0.68" stop-color="#9E37B9"/>
<stop offset="0.86" stop-color="#7F28BD"/>
<stop offset="0.99" stop-color="#641CC1"/>
</linearGradient>
</defs>
</svg>
