<svg width="600" height="195" viewBox="0 0 600 195" fill="none" xmlns="http://www.w3.org/2000/svg">
<g clip-path="url(#clip0_1259_87)">
<path d="M26.2621 97.4382L12.7032 111.021L-1 97.4382L12.7032 83.735L26.2621 97.4382ZM59.4382 64.2621L82.8057 87.6296L96.5089 73.9505L59.4382 37L22.3675 74.0707L36.0707 87.7498L59.4382 64.2621ZM106.173 83.735L92.5902 97.4382L106.293 111.141L119.973 97.4382L106.173 83.735ZM59.4382 130.614L36.0707 107.127L22.3675 120.83L59.4382 157.9L96.5089 120.83L82.8057 107.151L59.4382 130.614ZM59.4382 111.021L73.1413 97.318L59.4382 83.759L45.735 97.4382L59.4382 111.021ZM203.442 112.415V112.175C203.442 103.328 198.73 98.8325 191.061 95.8755C195.773 93.2791 199.787 89.024 199.787 81.5954V81.355C199.787 70.9694 191.397 64.238 177.959 64.238H147.138V130.494H178.656C193.633 130.614 203.442 124.46 203.442 112.415ZM185.243 84.0956C185.243 89.048 181.228 91.0434 174.737 91.0434H161.274V77.0036H175.699C181.829 77.0036 185.267 79.4798 185.267 83.8552V84.0956H185.243ZM188.921 110.54C188.921 115.493 185.026 117.753 178.656 117.753H161.322V103.232H178.199C185.628 103.232 188.945 105.949 188.945 110.444V110.54H188.921ZM233.997 130.614V64.2621H219.357V130.494H233.997V130.614ZM312.37 130.614V64.2621H297.969V105.107L266.933 64.2621H253.47V130.494H267.871V88.471L299.989 130.614H312.37ZM393.098 130.614L364.658 63.9255H351.195L322.755 130.614H337.757L343.767 115.733H371.75L377.76 130.614H393.098ZM366.557 102.871H348.984L357.831 81.4031L366.557 102.871ZM462.624 130.614V64.2621H448.223V105.107L417.187 64.2621H403.724V130.494H418.125V88.471L450.243 130.614H462.624ZM537.823 119.868L528.495 110.54C523.302 115.252 518.687 118.329 511.018 118.329C499.695 118.329 491.785 108.882 491.785 97.5584V97.1978C491.785 85.8746 499.815 76.5469 511.018 76.5469C517.629 76.5469 522.822 79.3837 528.014 83.9754L537.342 73.2292C531.212 67.2191 523.759 62.9639 511.258 62.9639C490.968 62.9639 476.688 78.422 476.688 97.1978V97.4382C476.688 116.43 491.208 131.552 510.681 131.552C523.423 131.672 530.971 127.176 537.823 119.868ZM600.016 130.614V117.632H564.003V103.713H595.28V90.7308H564.003V77.2681H599.535V64.2861H549.603V130.494H600.016V130.614Z" fill="#F0B90B"/>
</g>
<defs>
<clipPath id="clip0_1259_87">
<rect width="600" height="195" fill="white"/>
</clipPath>
</defs>
</svg>
