<svg width="600" height="195" viewBox="0 0 600 195" fill="none" xmlns="http://www.w3.org/2000/svg">
<path d="M113.183 111.733H82.2308L50.5522 80.264C50.062 79.7773 49.6725 79.1987 49.4062 78.5613C49.1399 77.9239 49.0018 77.2402 49 76.5494C48.9982 75.8586 49.1326 75.1743 49.3956 74.5355C49.6586 73.8967 50.045 73.3161 50.5327 72.8268L91.1544 32H123.048L113.408 41.3767L78.0007 76.5544L112.959 111.732M245.76 105.465C249.537 103.32 252.559 100.65 254.762 97.5012C257.265 93.9421 258.59 89.6878 258.549 85.3367C258.549 76.9443 255.41 70.3889 249.226 65.8615C243.114 61.3778 234.707 59.1115 224.229 59.1115H186.341V156.349H225.744C236.778 156.349 245.614 153.785 252.003 148.722C258.441 143.614 261.711 136.465 261.711 127.463C261.711 121.98 260.171 117.267 257.145 113.451C254.43 110.04 250.604 107.359 245.76 105.468L245.76 105.465ZM206.844 76.637H222.581C227.518 76.637 231.241 77.5923 233.664 79.4783C236.052 81.3303 237.222 83.7769 237.222 86.935C237.222 90.1029 236.052 92.6665 233.664 94.5331C231.242 96.4143 227.518 97.3695 222.581 97.3695H206.844V76.637ZM236.471 135.526C233.741 137.714 229.574 138.82 224.092 138.82H206.844V115.027H224.097C229.575 115.027 233.747 116.099 236.485 118.195C239.2 120.291 240.516 123.054 240.516 126.656C240.516 130.447 239.195 133.347 236.471 135.526ZM289.418 83.6362H268.773V156.342H289.413V83.6362H289.418ZM493.283 94.5777C489.979 90.6596 485.814 87.5573 481.114 85.5126C476.308 83.3828 470.904 82.3009 465.06 82.3009C457.896 82.3009 451.433 83.9287 445.843 87.1356C440.316 90.2818 435.75 94.8747 432.636 100.421C429.463 106.026 427.86 112.517 427.86 119.726C427.86 126.938 429.419 133.859 432.49 139.547C435.49 145.166 440.063 149.79 445.649 152.852C451.288 155.966 457.911 157.545 465.339 157.545C474.452 157.545 482.187 155.255 488.342 150.727C494.264 146.375 498.334 140.239 500.556 132.548H479.775C478.683 135.166 477.143 137.393 474.935 138.962C472.328 140.814 468.96 141.75 464.925 141.75C461.426 141.75 458.424 140.902 456.006 139.225C453.584 137.544 451.732 135.068 450.514 131.847C449.735 129.73 449.214 127.528 448.959 125.287H500.917L501.019 124.643C501.945 118.78 501.711 113.224 500.317 108.132C498.985 103.155 496.585 98.5288 493.285 94.5729L493.283 94.5777ZM449.289 111.83C449.604 110.324 450.036 108.845 450.58 107.405C451.848 104.14 453.675 101.63 456.019 99.9533C458.354 98.2767 461.259 97.4336 464.651 97.4336C468.905 97.4336 472.4 98.8128 475.031 101.527C477.532 104.11 478.945 107.639 479.247 111.826H449.289L449.289 111.83ZM289.84 59.1117H268.338V76.637H289.84V59.1117ZM402.873 91.8869C400.546 89.0461 397.638 86.7362 394.344 85.1126C390.494 83.246 385.986 82.3005 380.946 82.3005C374.781 82.3005 369.249 83.8259 364.522 86.8184C359.794 89.8156 356.042 94.046 353.386 99.3878C350.729 104.72 349.384 110.978 349.384 117.996C349.384 125.014 350.798 130.906 353.595 136.272C356.398 141.658 360.282 145.947 365.141 149.027C370.005 152.112 375.556 153.681 381.638 153.681C386.229 153.681 390.425 152.687 394.1 150.723C396.933 149.231 399.41 147.144 401.362 144.607V152.521C401.362 157.429 400.075 161.196 397.541 163.706C394.997 166.216 391.127 167.483 386.039 167.483C381.653 167.483 378.207 166.489 375.795 164.525C373.821 162.917 372.095 160.811 371.696 156.347H351.792C351.977 162.595 353.81 166.801 356.403 170.49C359.302 174.618 363.387 177.849 368.552 180.081C373.66 182.284 379.596 183.405 386.175 183.405C397.229 183.405 406.025 180.627 412.323 175.154C418.658 169.652 421.866 161.947 421.866 152.257V83.6364H402.878V91.8875L402.873 91.8869ZM399.242 127.655C398.046 130.231 396.138 132.413 393.744 133.942C391.405 135.404 388.578 136.155 385.352 136.155C380.673 136.155 377.042 134.561 374.24 131.291C371.443 128.03 370.024 123.556 370.024 117.991C370.024 112.425 371.438 107.951 374.235 104.691C377.008 101.464 380.746 99.8269 385.347 99.8269C389.953 99.8269 394.018 101.484 396.878 104.764C399.763 108.073 401.225 112.567 401.225 118.118C401.225 121.719 400.558 124.921 399.242 127.65L399.242 127.655ZM550.997 101.03V83.6405H536.098V59.1117H515.595V83.6405H502.869V101.03H515.595V129.492C515.595 145.317 518.714 156.946 538.14 156.585L550.339 156.341V140.048H544.286C535.65 140.048 536.132 135.014 536.132 125.661L536.098 101.035H550.997V101.03ZM344.37 101.03V83.6405H329.471V59.1117H308.968V83.6405H296.238V101.03H308.959V129.492C308.959 145.317 312.078 156.946 331.509 156.585L343.703 156.341V140.048H337.664C329.028 140.048 329.506 135.014 329.506 125.661L329.472 101.035H344.37L344.37 101.03ZM100.467 76.637H131.429L163.103 108.106C165.165 110.153 165.174 113.487 163.123 115.543L122.501 156.37H90.6128L100.258 146.993L135.66 111.816L100.706 76.6328" fill="white"/>
</svg>
