<svg width="600" height="195" viewBox="0 0 600 195" fill="none" xmlns="http://www.w3.org/2000/svg">
<path d="M382 132V33H402V132H382Z" fill="#F6A500"/>
<path d="M149.742 162H107V62H148.032C167.978 62 179.575 72.9451 179.575 90.0954C179.575 101.184 172.11 108.366 166.952 110.75C173.107 113.566 181 119.886 181 133.215C181 151.888 167.95 162 149.742 162ZM146.436 79.4088H126.918V102.448H146.436C154.899 102.448 159.629 97.823 159.629 90.9285C159.629 84.0626 154.899 79.4088 146.436 79.4088ZM147.719 120.001H126.918V144.591H147.719C156.751 144.591 161.054 138.989 161.054 132.238C161.054 125.488 156.751 120.029 147.719 120.029V120.001Z" fill="white"/>
<path d="M242.002 120.977V162H221.998V120.977L191 62H212.874L232.13 102.305L251.126 62H273L242.002 120.977Z" fill="white"/>
<path d="M328.742 162H286V62H327.032C346.978 62 358.575 72.9451 358.575 90.0954C358.575 101.184 351.11 108.366 345.952 110.75C352.107 113.566 360 119.886 360 133.215C360 151.888 346.95 162 328.742 162ZM325.436 79.4088H305.918V102.448H325.436C333.899 102.448 338.629 97.823 338.629 90.9285C338.629 84.0626 333.899 79.4088 325.436 79.4088ZM326.719 120.001H305.918V144.591H326.719C335.751 144.591 340.054 138.989 340.054 132.238C340.054 125.488 335.751 120.029 326.719 120.029V120.001Z" fill="white"/>
<path d="M466.416 79.4088V162H446.584V79.4088H420V62H493V79.4088H466.416Z" fill="white"/>
</svg>
