<svg width="600" height="195" viewBox="0 0 600 195" fill="none" xmlns="http://www.w3.org/2000/svg">
<g clip-path="url(#clip0_1259_43)">
<path d="M220.206 43H109.573C108.891 43 108.236 43.2542 107.754 43.7068C107.271 44.1593 107 44.7731 107 45.413V149.174C107 149.814 107.271 150.428 107.754 150.881C108.236 151.333 108.891 151.587 109.573 151.587H220.206C220.889 151.587 221.543 151.333 222.026 150.881C222.508 150.428 222.78 149.814 222.78 149.174V45.413C222.78 44.7731 222.508 44.1593 222.026 43.7068C221.543 43.2542 220.889 43 220.206 43ZM184.186 112.978C184.186 113.618 183.915 114.232 183.433 114.685C182.95 115.137 182.296 115.391 181.613 115.391H148.166C147.484 115.391 146.829 115.137 146.347 114.685C145.864 114.232 145.593 113.618 145.593 112.978V81.6088C145.593 80.9688 145.864 80.355 146.347 79.9025C146.829 79.4499 147.484 79.1957 148.166 79.1957H181.613C182.296 79.1957 182.95 79.4499 183.433 79.9025C183.915 80.355 184.186 80.9688 184.186 81.6088V112.978Z" fill="white"/>
<path d="M451.813 79.1997H418.365C416.945 79.1997 415.792 80.28 415.792 81.6128V112.982C415.792 114.315 416.945 115.395 418.365 115.395H451.813C453.234 115.395 454.386 114.315 454.386 112.982V81.6128C454.386 80.28 453.234 79.1997 451.813 79.1997Z" fill="white"/>
<path d="M413.228 43.0015H379.781C378.36 43.0015 377.208 44.0818 377.208 45.4145V76.7841C377.208 78.1168 378.36 79.1972 379.781 79.1972H413.228C414.649 79.1972 415.802 78.1168 415.802 76.7841V45.4145C415.802 44.0818 414.649 43.0015 413.228 43.0015Z" fill="white"/>
<path d="M490.427 43.0015H456.979C455.559 43.0015 454.406 44.0818 454.406 45.4145V76.7841C454.406 78.1168 455.559 79.1972 456.979 79.1972H490.427C491.848 79.1972 493 78.1168 493 76.7841V45.4145C493 44.0818 491.848 43.0015 490.427 43.0015Z" fill="white"/>
<path d="M413.228 115.395H379.781C378.36 115.395 377.208 116.475 377.208 117.808V149.178C377.208 150.51 378.36 151.591 379.781 151.591H413.228C414.649 151.591 415.802 150.51 415.802 149.178V117.808C415.802 116.475 414.649 115.395 413.228 115.395Z" fill="white"/>
<path d="M490.427 115.395H456.979C455.559 115.395 454.406 116.475 454.406 117.808V149.178C454.406 150.51 455.559 151.591 456.979 151.591H490.427C491.848 151.591 493 150.51 493 149.178V117.808C493 116.475 491.848 115.395 490.427 115.395Z" fill="white"/>
<path d="M355.293 43.0015H321.846C320.425 43.0015 319.272 44.0818 319.272 45.4145V76.7841C319.272 78.1168 320.425 79.1972 321.846 79.1972H355.293C356.714 79.1972 357.865 78.1168 357.865 76.7841V45.4145C357.865 44.0818 356.714 43.0015 355.293 43.0015Z" fill="white"/>
<path d="M355.293 115.395H321.846C320.425 115.395 319.272 116.475 319.272 117.808V149.178C319.272 150.51 320.425 151.591 321.846 151.591H355.293C356.714 151.591 357.865 150.51 357.865 149.178V117.808C357.865 116.475 356.714 115.395 355.293 115.395Z" fill="white"/>
<path d="M319.261 81.5816C319.261 80.9417 318.99 80.3279 318.508 79.8754C318.025 79.4228 317.371 79.1686 316.688 79.1686H280.668V45.413C280.668 44.7731 280.396 44.1593 279.914 43.7068C279.432 43.2542 278.777 43 278.095 43H244.648C243.965 43 243.311 43.2542 242.828 43.7068C242.346 44.1593 242.074 44.7731 242.074 45.413V149.12C242.074 149.76 242.346 150.373 242.828 150.826C243.311 151.279 243.965 151.533 244.648 151.533H278.095C278.777 151.533 279.432 151.279 279.914 150.826C280.396 150.373 280.668 149.76 280.668 149.12V115.364H316.688C317.371 115.364 318.025 115.11 318.508 114.658C318.99 114.205 319.261 113.591 319.261 112.951V81.5816Z" fill="white"/>
</g>
<defs>
<clipPath id="clip0_1259_43">
<rect width="386" height="108.591" fill="white" transform="translate(107 43)"/>
</clipPath>
</defs>
</svg>
